%TF.GenerationSoftware,KiCad,Pcbnew,8.0.2*%
%TF.CreationDate,2024-06-20T15:08:29+01:00*%
%TF.ProjectId,dadaelus v0.3,64616461-656c-4757-9320-76302e332e6b,rev?*%
%TF.SameCoordinates,Original*%
%TF.FileFunction,Copper,L1,Top*%
%TF.FilePolarity,Positive*%
%FSLAX46Y46*%
G04 Gerber Fmt 4.6, Leading zero omitted, Abs format (unit mm)*
G04 Created by KiCad (PCBNEW 8.0.2) date 2024-06-20 15:08:29*
%MOMM*%
%LPD*%
G01*
G04 APERTURE LIST*
%ADD10C,0.200000*%
%TA.AperFunction,NonConductor*%
%ADD11C,0.200000*%
%TD*%
%TA.AperFunction,ComponentPad*%
%ADD12R,1.050000X1.500000*%
%TD*%
%TA.AperFunction,ComponentPad*%
%ADD13O,1.050000X1.500000*%
%TD*%
%TA.AperFunction,ComponentPad*%
%ADD14C,2.000000*%
%TD*%
%TA.AperFunction,ComponentPad*%
%ADD15R,2.000000X2.000000*%
%TD*%
%TA.AperFunction,ComponentPad*%
%ADD16R,1.700000X1.700000*%
%TD*%
%TA.AperFunction,ComponentPad*%
%ADD17O,1.700000X1.700000*%
%TD*%
%TA.AperFunction,ComponentPad*%
%ADD18R,1.905000X2.000000*%
%TD*%
%TA.AperFunction,ComponentPad*%
%ADD19O,1.905000X2.000000*%
%TD*%
%TA.AperFunction,ComponentPad*%
%ADD20R,1.600000X1.600000*%
%TD*%
%TA.AperFunction,ComponentPad*%
%ADD21O,1.600000X1.600000*%
%TD*%
%TA.AperFunction,ComponentPad*%
%ADD22C,1.400000*%
%TD*%
%TA.AperFunction,ComponentPad*%
%ADD23O,1.400000X1.400000*%
%TD*%
%TA.AperFunction,ComponentPad*%
%ADD24R,1.070000X1.800000*%
%TD*%
%TA.AperFunction,ComponentPad*%
%ADD25O,1.070000X1.800000*%
%TD*%
%TA.AperFunction,ComponentPad*%
%ADD26C,1.600000*%
%TD*%
%TA.AperFunction,ComponentPad*%
%ADD27R,1.300000X1.300000*%
%TD*%
%TA.AperFunction,ComponentPad*%
%ADD28C,1.300000*%
%TD*%
%TA.AperFunction,ComponentPad*%
%ADD29C,1.524000*%
%TD*%
%TA.AperFunction,Conductor*%
%ADD30C,0.350000*%
%TD*%
G04 APERTURE END LIST*
D10*
D11*
X124369673Y-85367219D02*
X124369673Y-84367219D01*
X124369673Y-84367219D02*
X124750625Y-84367219D01*
X124750625Y-84367219D02*
X124845863Y-84414838D01*
X124845863Y-84414838D02*
X124893482Y-84462457D01*
X124893482Y-84462457D02*
X124941101Y-84557695D01*
X124941101Y-84557695D02*
X124941101Y-84700552D01*
X124941101Y-84700552D02*
X124893482Y-84795790D01*
X124893482Y-84795790D02*
X124845863Y-84843409D01*
X124845863Y-84843409D02*
X124750625Y-84891028D01*
X124750625Y-84891028D02*
X124369673Y-84891028D01*
X125560149Y-84891028D02*
X125560149Y-85367219D01*
X125226816Y-84367219D02*
X125560149Y-84891028D01*
X125560149Y-84891028D02*
X125893482Y-84367219D01*
X126798244Y-85367219D02*
X126464911Y-84891028D01*
X126226816Y-85367219D02*
X126226816Y-84367219D01*
X126226816Y-84367219D02*
X126607768Y-84367219D01*
X126607768Y-84367219D02*
X126703006Y-84414838D01*
X126703006Y-84414838D02*
X126750625Y-84462457D01*
X126750625Y-84462457D02*
X126798244Y-84557695D01*
X126798244Y-84557695D02*
X126798244Y-84700552D01*
X126798244Y-84700552D02*
X126750625Y-84795790D01*
X126750625Y-84795790D02*
X126703006Y-84843409D01*
X126703006Y-84843409D02*
X126607768Y-84891028D01*
X126607768Y-84891028D02*
X126226816Y-84891028D01*
X127417292Y-84367219D02*
X127607768Y-84367219D01*
X127607768Y-84367219D02*
X127703006Y-84414838D01*
X127703006Y-84414838D02*
X127798244Y-84510076D01*
X127798244Y-84510076D02*
X127845863Y-84700552D01*
X127845863Y-84700552D02*
X127845863Y-85033885D01*
X127845863Y-85033885D02*
X127798244Y-85224361D01*
X127798244Y-85224361D02*
X127703006Y-85319600D01*
X127703006Y-85319600D02*
X127607768Y-85367219D01*
X127607768Y-85367219D02*
X127417292Y-85367219D01*
X127417292Y-85367219D02*
X127322054Y-85319600D01*
X127322054Y-85319600D02*
X127226816Y-85224361D01*
X127226816Y-85224361D02*
X127179197Y-85033885D01*
X127179197Y-85033885D02*
X127179197Y-84700552D01*
X127179197Y-84700552D02*
X127226816Y-84510076D01*
X127226816Y-84510076D02*
X127322054Y-84414838D01*
X127322054Y-84414838D02*
X127417292Y-84367219D01*
X128798244Y-85367219D02*
X128226816Y-85367219D01*
X128512530Y-85367219D02*
X128512530Y-84367219D01*
X128512530Y-84367219D02*
X128417292Y-84510076D01*
X128417292Y-84510076D02*
X128322054Y-84605314D01*
X128322054Y-84605314D02*
X128226816Y-84652933D01*
D10*
D11*
X128726816Y-91367219D02*
X129298244Y-91367219D01*
X129012530Y-92367219D02*
X129012530Y-91367219D01*
X129488721Y-91367219D02*
X129822054Y-92367219D01*
X129822054Y-92367219D02*
X130155387Y-91367219D01*
X131060149Y-92271980D02*
X131012530Y-92319600D01*
X131012530Y-92319600D02*
X130869673Y-92367219D01*
X130869673Y-92367219D02*
X130774435Y-92367219D01*
X130774435Y-92367219D02*
X130631578Y-92319600D01*
X130631578Y-92319600D02*
X130536340Y-92224361D01*
X130536340Y-92224361D02*
X130488721Y-92129123D01*
X130488721Y-92129123D02*
X130441102Y-91938647D01*
X130441102Y-91938647D02*
X130441102Y-91795790D01*
X130441102Y-91795790D02*
X130488721Y-91605314D01*
X130488721Y-91605314D02*
X130536340Y-91510076D01*
X130536340Y-91510076D02*
X130631578Y-91414838D01*
X130631578Y-91414838D02*
X130774435Y-91367219D01*
X130774435Y-91367219D02*
X130869673Y-91367219D01*
X130869673Y-91367219D02*
X131012530Y-91414838D01*
X131012530Y-91414838D02*
X131060149Y-91462457D01*
X131250626Y-92462457D02*
X132012530Y-92462457D01*
X132774435Y-92367219D02*
X132203007Y-92367219D01*
X132488721Y-92367219D02*
X132488721Y-91367219D01*
X132488721Y-91367219D02*
X132393483Y-91510076D01*
X132393483Y-91510076D02*
X132298245Y-91605314D01*
X132298245Y-91605314D02*
X132203007Y-91652933D01*
D10*
D11*
X128226816Y-102367219D02*
X128798244Y-102367219D01*
X128512530Y-103367219D02*
X128512530Y-102367219D01*
X128988721Y-102367219D02*
X129322054Y-103367219D01*
X129322054Y-103367219D02*
X129655387Y-102367219D01*
X130560149Y-103271980D02*
X130512530Y-103319600D01*
X130512530Y-103319600D02*
X130369673Y-103367219D01*
X130369673Y-103367219D02*
X130274435Y-103367219D01*
X130274435Y-103367219D02*
X130131578Y-103319600D01*
X130131578Y-103319600D02*
X130036340Y-103224361D01*
X130036340Y-103224361D02*
X129988721Y-103129123D01*
X129988721Y-103129123D02*
X129941102Y-102938647D01*
X129941102Y-102938647D02*
X129941102Y-102795790D01*
X129941102Y-102795790D02*
X129988721Y-102605314D01*
X129988721Y-102605314D02*
X130036340Y-102510076D01*
X130036340Y-102510076D02*
X130131578Y-102414838D01*
X130131578Y-102414838D02*
X130274435Y-102367219D01*
X130274435Y-102367219D02*
X130369673Y-102367219D01*
X130369673Y-102367219D02*
X130512530Y-102414838D01*
X130512530Y-102414838D02*
X130560149Y-102462457D01*
X130750626Y-103462457D02*
X131512530Y-103462457D01*
X131703007Y-102462457D02*
X131750626Y-102414838D01*
X131750626Y-102414838D02*
X131845864Y-102367219D01*
X131845864Y-102367219D02*
X132083959Y-102367219D01*
X132083959Y-102367219D02*
X132179197Y-102414838D01*
X132179197Y-102414838D02*
X132226816Y-102462457D01*
X132226816Y-102462457D02*
X132274435Y-102557695D01*
X132274435Y-102557695D02*
X132274435Y-102652933D01*
X132274435Y-102652933D02*
X132226816Y-102795790D01*
X132226816Y-102795790D02*
X131655388Y-103367219D01*
X131655388Y-103367219D02*
X132274435Y-103367219D01*
D10*
D11*
X128369673Y-115867219D02*
X128369673Y-114867219D01*
X128369673Y-114867219D02*
X128750625Y-114867219D01*
X128750625Y-114867219D02*
X128845863Y-114914838D01*
X128845863Y-114914838D02*
X128893482Y-114962457D01*
X128893482Y-114962457D02*
X128941101Y-115057695D01*
X128941101Y-115057695D02*
X128941101Y-115200552D01*
X128941101Y-115200552D02*
X128893482Y-115295790D01*
X128893482Y-115295790D02*
X128845863Y-115343409D01*
X128845863Y-115343409D02*
X128750625Y-115391028D01*
X128750625Y-115391028D02*
X128369673Y-115391028D01*
X129322054Y-115581504D02*
X129798244Y-115581504D01*
X129226816Y-115867219D02*
X129560149Y-114867219D01*
X129560149Y-114867219D02*
X129893482Y-115867219D01*
X130798244Y-115867219D02*
X130464911Y-115391028D01*
X130226816Y-115867219D02*
X130226816Y-114867219D01*
X130226816Y-114867219D02*
X130607768Y-114867219D01*
X130607768Y-114867219D02*
X130703006Y-114914838D01*
X130703006Y-114914838D02*
X130750625Y-114962457D01*
X130750625Y-114962457D02*
X130798244Y-115057695D01*
X130798244Y-115057695D02*
X130798244Y-115200552D01*
X130798244Y-115200552D02*
X130750625Y-115295790D01*
X130750625Y-115295790D02*
X130703006Y-115343409D01*
X130703006Y-115343409D02*
X130607768Y-115391028D01*
X130607768Y-115391028D02*
X130226816Y-115391028D01*
X131179197Y-115581504D02*
X131655387Y-115581504D01*
X131083959Y-115867219D02*
X131417292Y-114867219D01*
X131417292Y-114867219D02*
X131750625Y-115867219D01*
D12*
%TO.P,Q2,1,D*%
%TO.N,Net-(J7-Pin_2)*%
X171460000Y-68000000D03*
D13*
%TO.P,Q2,2,G*%
%TO.N,Net-(Q2-G)*%
X172730000Y-68000000D03*
%TO.P,Q2,3,S*%
%TO.N,GND*%
X174000000Y-68000000D03*
%TD*%
D14*
%TO.P,J7,2,Pin_2*%
%TO.N,Net-(J7-Pin_2)*%
X156500000Y-63500000D03*
D15*
%TO.P,J7,1,Pin_1*%
%TO.N,Net-(J6-Pin_2)*%
X153960000Y-63500000D03*
%TD*%
%TO.P,J6,1,Pin_1*%
%TO.N,Net-(J6-Pin_1)*%
X126500000Y-82040000D03*
D14*
%TO.P,J6,2,Pin_2*%
%TO.N,Net-(J6-Pin_2)*%
X126500000Y-79500000D03*
%TD*%
D16*
%TO.P,J5,1,Pin_1*%
%TO.N,GND*%
X167500000Y-62500000D03*
D17*
%TO.P,J5,2,Pin_2*%
%TO.N,Net-(J1-Pin_2)*%
X164960000Y-62500000D03*
%TO.P,J5,3,Pin_3*%
%TO.N,Net-(J5-Pin_3)*%
X162420000Y-62500000D03*
%TD*%
D16*
%TO.P,J4,1,Pin_1*%
%TO.N,GND*%
X126000000Y-112420000D03*
D17*
%TO.P,J4,2,Pin_2*%
%TO.N,Net-(J1-Pin_2)*%
X126000000Y-114960000D03*
%TO.P,J4,3,Pin_3*%
%TO.N,Net-(J4-Pin_3)*%
X126000000Y-117500000D03*
%TD*%
D18*
%TO.P,U5,1,ADJ/GND*%
%TO.N,Net-(U2-GND)*%
X160981600Y-87190000D03*
D19*
%TO.P,U5,2,OUT*%
%TO.N,Net-(U2-VCC)*%
X163521600Y-87190000D03*
%TO.P,U5,3,IN*%
%TO.N,Net-(U5-IN)*%
X166061600Y-87190000D03*
%TD*%
D16*
%TO.P,J1,1,Pin_1*%
%TO.N,GND*%
X126061600Y-88975000D03*
D17*
%TO.P,J1,2,Pin_2*%
%TO.N,Net-(J1-Pin_2)*%
X126061600Y-91515000D03*
%TO.P,J1,3,Pin_3*%
%TO.N,Net-(J1-Pin_3)*%
X126061600Y-94055000D03*
%TD*%
D20*
%TO.P,SW1,1,A*%
%TO.N,Net-(J6-Pin_2)*%
X177500000Y-71700000D03*
D21*
%TO.P,SW1,2,B*%
%TO.N,+9V*%
X177500000Y-79320000D03*
%TD*%
D22*
%TO.P,R3,1*%
%TO.N,Net-(U1-38_CS1_IN1)*%
X176280000Y-124350000D03*
D23*
%TO.P,R3,2*%
%TO.N,Net-(D1-GK)*%
X178820000Y-124350000D03*
%TD*%
D18*
%TO.P,U4,1,VI*%
%TO.N,Net-(J6-Pin_2)*%
X165061600Y-71690000D03*
D19*
%TO.P,U4,2,GND*%
%TO.N,GND*%
X162521600Y-71690000D03*
%TO.P,U4,3,VO*%
%TO.N,Net-(J1-Pin_2)*%
X159981600Y-71690000D03*
%TD*%
D15*
%TO.P,J3,1,Pin_1*%
%TO.N,+9V*%
X177561600Y-85650000D03*
D14*
%TO.P,J3,2,Pin_2*%
%TO.N,GND*%
X177561600Y-88190000D03*
%TD*%
D16*
%TO.P,J2,1,Pin_1*%
%TO.N,GND*%
X126061600Y-99975000D03*
D17*
%TO.P,J2,2,Pin_2*%
%TO.N,Net-(J1-Pin_2)*%
X126061600Y-102515000D03*
%TO.P,J2,3,Pin_3*%
%TO.N,Net-(J2-Pin_3)*%
X126061600Y-105055000D03*
%TD*%
D24*
%TO.P,D1,1,A*%
%TO.N,Net-(D1-A)*%
X175510000Y-113875000D03*
D25*
%TO.P,D1,2,BK*%
%TO.N,Net-(D1-BK)*%
X176780000Y-113875000D03*
%TO.P,D1,3,GK*%
%TO.N,Net-(D1-GK)*%
X178050000Y-113875000D03*
%TO.P,D1,4,RK*%
%TO.N,Net-(D1-RK)*%
X179320000Y-113875000D03*
%TD*%
D20*
%TO.P,U1,1,GND*%
%TO.N,GND*%
X135760000Y-71530000D03*
D26*
%TO.P,U1,2,0_RX1_CRX2_CS1*%
%TO.N,unconnected-(U1-0_RX1_CRX2_CS1-Pad2)*%
X135760000Y-74070000D03*
%TO.P,U1,3,1_TX1_CTX2_MISO1*%
%TO.N,unconnected-(U1-1_TX1_CTX2_MISO1-Pad3)*%
X135760000Y-76610000D03*
%TO.P,U1,4,2_OUT2*%
%TO.N,unconnected-(U1-2_OUT2-Pad4)*%
X135760000Y-79150000D03*
%TO.P,U1,5,3_LRCLK2*%
%TO.N,Net-(Q1-G)*%
X135760000Y-81690000D03*
%TO.P,U1,6,4_BCLK2*%
%TO.N,unconnected-(U1-4_BCLK2-Pad6)*%
X135760000Y-84230000D03*
%TO.P,U1,7,5_IN2*%
%TO.N,unconnected-(U1-5_IN2-Pad7)*%
X135760000Y-86770000D03*
%TO.P,U1,8,6_OUT1D*%
%TO.N,unconnected-(U1-6_OUT1D-Pad8)*%
X135760000Y-89310000D03*
%TO.P,U1,9,7_RX2_OUT1A*%
%TO.N,unconnected-(U1-7_RX2_OUT1A-Pad9)*%
X135760000Y-91850000D03*
%TO.P,U1,10,8_TX2_IN1*%
%TO.N,unconnected-(U1-8_TX2_IN1-Pad10)*%
X135760000Y-94390000D03*
%TO.P,U1,11,9_OUT1C*%
%TO.N,Net-(J1-Pin_3)*%
X135760000Y-96930000D03*
%TO.P,U1,12,10_CS_MQSR*%
%TO.N,unconnected-(U1-10_CS_MQSR-Pad12)*%
X135760000Y-99470000D03*
%TO.P,U1,13,11_MOSI_CTX1*%
%TO.N,unconnected-(U1-11_MOSI_CTX1-Pad13)*%
X135760000Y-102010000D03*
%TO.P,U1,14,12_MISO_MQSL*%
%TO.N,unconnected-(U1-12_MISO_MQSL-Pad14)*%
X135760000Y-104550000D03*
%TO.P,U1,15,3V3*%
%TO.N,unconnected-(U1-3V3-Pad15)*%
X135760000Y-107090000D03*
%TO.P,U1,16,24_A10_TX6_SCL2*%
%TO.N,Net-(J2-Pin_3)*%
X135760000Y-109630000D03*
%TO.P,U1,17,25_A11_RX6_SDA2*%
%TO.N,unconnected-(U1-25_A11_RX6_SDA2-Pad17)*%
X135760000Y-112170000D03*
%TO.P,U1,18,26_A12_MOSI1*%
%TO.N,unconnected-(U1-26_A12_MOSI1-Pad18)*%
X135760000Y-114710000D03*
%TO.P,U1,19,27_A13_SCK1*%
%TO.N,Net-(J4-Pin_3)*%
X135760000Y-117250000D03*
%TO.P,U1,20,28_RX7*%
%TO.N,unconnected-(U1-28_RX7-Pad20)*%
X135760000Y-119790000D03*
%TO.P,U1,21,29_TX7*%
%TO.N,unconnected-(U1-29_TX7-Pad21)*%
X135760000Y-122330000D03*
%TO.P,U1,22,30_CRX3*%
%TO.N,Net-(BZ1-+)*%
X135760000Y-124870000D03*
%TO.P,U1,23,31_CTX3*%
%TO.N,Net-(BZ1--)*%
X135760000Y-127410000D03*
%TO.P,U1,24,32_OUT1B*%
%TO.N,unconnected-(U1-32_OUT1B-Pad24)*%
X135760000Y-129950000D03*
%TO.P,U1,25,33_MCLK2*%
%TO.N,unconnected-(U1-33_MCLK2-Pad25)*%
X151000000Y-129950000D03*
%TO.P,U1,26,34_RX8*%
%TO.N,Net-(D1-A)*%
X151000000Y-127410000D03*
%TO.P,U1,27,35_TX8*%
%TO.N,unconnected-(U1-35_TX8-Pad27)*%
X151000000Y-124870000D03*
%TO.P,U1,28,36_CS*%
%TO.N,unconnected-(U1-36_CS-Pad28)*%
X151000000Y-122330000D03*
%TO.P,U1,29,37_CS*%
%TO.N,Net-(U1-37_CS)*%
X151000000Y-119790000D03*
%TO.P,U1,30,38_CS1_IN1*%
%TO.N,Net-(U1-38_CS1_IN1)*%
X151000000Y-117250000D03*
%TO.P,U1,31,39_MISO1_OUT1A*%
%TO.N,Net-(U1-39_MISO1_OUT1A)*%
X151000000Y-114710000D03*
%TO.P,U1,32,40_A16*%
%TO.N,unconnected-(U1-40_A16-Pad32)*%
X151000000Y-112170000D03*
%TO.P,U1,33,41_A17*%
%TO.N,unconnected-(U1-41_A17-Pad33)*%
X151000000Y-109630000D03*
%TO.P,U1,34,GND*%
%TO.N,Net-(U2-GND)*%
X151000000Y-107090000D03*
%TO.P,U1,35,13_SCK_LED*%
%TO.N,unconnected-(U1-13_SCK_LED-Pad35)*%
X151000000Y-104550000D03*
%TO.P,U1,36,14_A0_TX3_SPDIF_OUT*%
%TO.N,unconnected-(U1-14_A0_TX3_SPDIF_OUT-Pad36)*%
X151000000Y-102010000D03*
%TO.P,U1,37,15_A1_RX3_SPDIF_IN*%
%TO.N,unconnected-(U1-15_A1_RX3_SPDIF_IN-Pad37)*%
X151000000Y-99470000D03*
%TO.P,U1,38,16_A2_RX4_SCL1*%
%TO.N,Net-(U1-16_A2_RX4_SCL1)*%
X151000000Y-96930000D03*
%TO.P,U1,39,17_A3_TX4_SDA1*%
%TO.N,Net-(U1-17_A3_TX4_SDA1)*%
X151000000Y-94390000D03*
%TO.P,U1,40,18_A4_SDA*%
%TO.N,Net-(U1-18_A4_SDA)*%
X151000000Y-91850000D03*
%TO.P,U1,41,19_A5_SCL*%
%TO.N,Net-(U1-19_A5_SCL)*%
X151000000Y-89310000D03*
%TO.P,U1,42,20_A6_TX5_LRCLK1*%
%TO.N,unconnected-(U1-20_A6_TX5_LRCLK1-Pad42)*%
X151000000Y-86770000D03*
%TO.P,U1,43,21_A7_RX5_BCLK1*%
%TO.N,unconnected-(U1-21_A7_RX5_BCLK1-Pad43)*%
X151000000Y-84230000D03*
%TO.P,U1,44,22_A8_CTX1*%
%TO.N,Net-(Q2-G)*%
X151000000Y-81690000D03*
%TO.P,U1,45,23_A9_CRX1_MCLK1*%
%TO.N,Net-(J5-Pin_3)*%
X151000000Y-79150000D03*
%TO.P,U1,46,3V3*%
%TO.N,unconnected-(U1-3V3-Pad46)*%
X151000000Y-76610000D03*
%TO.P,U1,47,GND*%
%TO.N,GND*%
X151000000Y-74070000D03*
%TO.P,U1,48,VIN*%
%TO.N,Net-(J1-Pin_2)*%
X151000000Y-71530000D03*
%TO.P,U1,49,VUSB*%
%TO.N,unconnected-(U1-VUSB-Pad49)*%
X148460000Y-74070000D03*
%TO.P,U1,50,VBAT*%
%TO.N,unconnected-(U1-VBAT-Pad50)*%
X138300000Y-117250000D03*
%TO.P,U1,51,3V3*%
%TO.N,unconnected-(U1-3V3-Pad51)*%
X140840000Y-117250000D03*
%TO.P,U1,52,GND*%
%TO.N,unconnected-(U1-GND-Pad52)*%
X143380000Y-117250000D03*
%TO.P,U1,53,PROGRAM*%
%TO.N,unconnected-(U1-PROGRAM-Pad53)*%
X145920000Y-117250000D03*
%TO.P,U1,54,ON_OFF*%
%TO.N,unconnected-(U1-ON_OFF-Pad54)*%
X148460000Y-117250000D03*
D20*
%TO.P,U1,55,5V*%
%TO.N,unconnected-(U1-5V-Pad55)*%
X138810800Y-77829200D03*
D26*
%TO.P,U1,56,D-*%
%TO.N,unconnected-(U1-D--Pad56)*%
X138810800Y-80369200D03*
%TO.P,U1,57,D+*%
%TO.N,unconnected-(U1-D+-Pad57)*%
X138810800Y-82909200D03*
%TO.P,U1,58,GND*%
%TO.N,unconnected-(U1-GND-Pad58)*%
X138810800Y-85449200D03*
%TO.P,U1,59,GND*%
%TO.N,unconnected-(U1-GND-Pad59)*%
X138810800Y-87989200D03*
D27*
%TO.P,U1,60,R+*%
%TO.N,unconnected-(U1-R+-Pad60)*%
X148561600Y-84500000D03*
D28*
%TO.P,U1,61,LED*%
%TO.N,unconnected-(U1-LED-Pad61)*%
X146561600Y-84500000D03*
%TO.P,U1,62,T-*%
%TO.N,unconnected-(U1-T--Pad62)*%
X144561600Y-84500000D03*
%TO.P,U1,63,T+*%
%TO.N,unconnected-(U1-T+-Pad63)*%
X144561600Y-86500000D03*
%TO.P,U1,64,GND*%
%TO.N,unconnected-(U1-GND-Pad64)*%
X146561600Y-86500000D03*
%TO.P,U1,65,R-*%
%TO.N,unconnected-(U1-R--Pad65)*%
X148561600Y-86500000D03*
%TO.P,U1,66,D-*%
%TO.N,unconnected-(U1-D--Pad66)*%
X144650000Y-72260000D03*
%TO.P,U1,67,D+*%
%TO.N,unconnected-(U1-D+-Pad67)*%
X142110000Y-72260000D03*
%TD*%
D22*
%TO.P,R1,1*%
%TO.N,Net-(J1-Pin_2)*%
X160061600Y-77690000D03*
D23*
%TO.P,R1,2*%
%TO.N,Net-(U5-IN)*%
X160061600Y-80230000D03*
%TD*%
D29*
%TO.P,U2,1,VCC*%
%TO.N,Net-(U2-VCC)*%
X157338600Y-94737000D03*
%TO.P,U2,2,GND*%
%TO.N,Net-(U2-GND)*%
X157338600Y-97277000D03*
%TO.P,U2,3,SCL*%
%TO.N,Net-(U1-19_A5_SCL)*%
X157338600Y-99817000D03*
%TO.P,U2,4,SDA*%
%TO.N,Net-(U1-18_A4_SDA)*%
X157338600Y-102357000D03*
%TO.P,U2,5,3.3*%
%TO.N,unconnected-(U2-3.3-Pad5)*%
X157338600Y-104897000D03*
%TD*%
D12*
%TO.P,Q1,1,D*%
%TO.N,Net-(J6-Pin_1)*%
X128791600Y-73050000D03*
D13*
%TO.P,Q1,2,G*%
%TO.N,Net-(Q1-G)*%
X130061600Y-73050000D03*
%TO.P,Q1,3,S*%
%TO.N,GND*%
X131331600Y-73050000D03*
%TD*%
D22*
%TO.P,R4,1*%
%TO.N,Net-(U1-37_CS)*%
X176280000Y-127500000D03*
D23*
%TO.P,R4,2*%
%TO.N,Net-(D1-BK)*%
X178820000Y-127500000D03*
%TD*%
D29*
%TO.P,U3,1,VCC*%
%TO.N,Net-(U2-VCC)*%
X157076600Y-111927000D03*
%TO.P,U3,2,GND*%
%TO.N,Net-(U2-GND)*%
X157076600Y-114467000D03*
%TO.P,U3,3,SCL*%
%TO.N,Net-(U1-16_A2_RX4_SCL1)*%
X157076600Y-117007000D03*
%TO.P,U3,4,SDA*%
%TO.N,Net-(U1-17_A3_TX4_SDA1)*%
X157076600Y-119547000D03*
%TO.P,U3,5,XDA*%
%TO.N,unconnected-(U3-XDA-Pad5)*%
X157076600Y-122087000D03*
%TO.P,U3,6,XCL*%
%TO.N,unconnected-(U3-XCL-Pad6)*%
X157076600Y-124627000D03*
%TO.P,U3,7,ADD*%
%TO.N,unconnected-(U3-ADD-Pad7)*%
X157076600Y-127167000D03*
%TO.P,U3,8,INT*%
%TO.N,unconnected-(U3-INT-Pad8)*%
X157076600Y-129707000D03*
%TD*%
D22*
%TO.P,R2,1*%
%TO.N,Net-(U1-39_MISO1_OUT1A)*%
X176280000Y-121200000D03*
D23*
%TO.P,R2,2*%
%TO.N,Net-(D1-RK)*%
X178820000Y-121200000D03*
%TD*%
D15*
%TO.P,BZ1,1,+*%
%TO.N,Net-(BZ1-+)*%
X124629216Y-127500000D03*
D14*
%TO.P,BZ1,2,-*%
%TO.N,Net-(BZ1--)*%
X129629216Y-127500000D03*
%TD*%
D30*
%TO.N,Net-(J6-Pin_2)*%
X159000000Y-69500000D02*
X153960000Y-64460000D01*
X153960000Y-64460000D02*
X153960000Y-63500000D01*
X162871600Y-69500000D02*
X159000000Y-69500000D01*
X165061600Y-71690000D02*
X162871600Y-69500000D01*
%TO.N,GND*%
X174000000Y-66900000D02*
X174000000Y-68000000D01*
X169600000Y-62500000D02*
X174000000Y-66900000D01*
X167500000Y-62500000D02*
X169600000Y-62500000D01*
%TO.N,Net-(J6-Pin_1)*%
X127289213Y-82040000D02*
X126500000Y-82040000D01*
X128791600Y-80537613D02*
X127289213Y-82040000D01*
%TO.N,Net-(J6-Pin_2)*%
X125461600Y-78461600D02*
X126500000Y-79500000D01*
X125461600Y-69689872D02*
X125461600Y-78461600D01*
%TO.N,GND*%
X155745000Y-78815000D02*
X151000000Y-74070000D01*
X160527591Y-78815000D02*
X155745000Y-78815000D01*
X162521600Y-76820991D02*
X160527591Y-78815000D01*
X162521600Y-71690000D02*
X162521600Y-76820991D01*
%TO.N,Net-(J7-Pin_2)*%
X161000000Y-68000000D02*
X156500000Y-63500000D01*
X171460000Y-68000000D02*
X161000000Y-68000000D01*
%TO.N,Net-(J6-Pin_1)*%
X128791600Y-80537613D02*
X128791600Y-73050000D01*
%TO.N,Net-(J6-Pin_2)*%
X131651472Y-63500000D02*
X153960000Y-63500000D01*
X125461600Y-69689872D02*
X131651472Y-63500000D01*
%TO.N,Net-(BZ1-+)*%
X127259216Y-124870000D02*
X135760000Y-124870000D01*
X124629216Y-127500000D02*
X127259216Y-124870000D01*
%TO.N,Net-(BZ1--)*%
X129629216Y-127500000D02*
X135670000Y-127500000D01*
X135670000Y-127500000D02*
X135760000Y-127410000D01*
%TO.N,Net-(J4-Pin_3)*%
X135510000Y-117500000D02*
X135760000Y-117250000D01*
X126000000Y-117500000D02*
X135510000Y-117500000D01*
%TO.N,GND*%
X124000000Y-110420000D02*
X126000000Y-112420000D01*
X124000000Y-102000000D02*
X124000000Y-110420000D01*
X126025000Y-99975000D02*
X124000000Y-102000000D01*
X126061600Y-99975000D02*
X126025000Y-99975000D01*
X124000000Y-97913400D02*
X126061600Y-99975000D01*
X124000000Y-91000000D02*
X124000000Y-97913400D01*
X126025000Y-88975000D02*
X124000000Y-91000000D01*
X126061600Y-88975000D02*
X126025000Y-88975000D01*
%TO.N,Net-(J2-Pin_3)*%
X131185000Y-105055000D02*
X135760000Y-109630000D01*
X126061600Y-105055000D02*
X131185000Y-105055000D01*
%TO.N,Net-(J1-Pin_3)*%
X132885000Y-94055000D02*
X135760000Y-96930000D01*
X126061600Y-94055000D02*
X132885000Y-94055000D01*
%TO.N,GND*%
X128696600Y-88975000D02*
X126061600Y-88975000D01*
X131331600Y-86340000D02*
X128696600Y-88975000D01*
%TO.N,Net-(J1-Pin_2)*%
X160000000Y-77628400D02*
X160061600Y-77690000D01*
X160000000Y-71708400D02*
X160000000Y-77628400D01*
X159981600Y-71690000D02*
X160000000Y-71708400D01*
%TO.N,GND*%
X162521600Y-76521600D02*
X174190000Y-88190000D01*
X174190000Y-88190000D02*
X177561600Y-88190000D01*
X162521600Y-71690000D02*
X162521600Y-76521600D01*
%TO.N,Net-(U1-38_CS1_IN1)*%
X170290000Y-118360000D02*
X152110000Y-118360000D01*
X152110000Y-118360000D02*
X151000000Y-117250000D01*
X176280000Y-124350000D02*
X170290000Y-118360000D01*
%TO.N,Net-(U1-39_MISO1_OUT1A)*%
X152110000Y-115820000D02*
X151000000Y-114710000D01*
X176280000Y-121200000D02*
X170900000Y-115820000D01*
X170900000Y-115820000D02*
X152110000Y-115820000D01*
%TO.N,Net-(D1-GK)*%
X177500000Y-123030000D02*
X178820000Y-124350000D01*
X177500000Y-117000000D02*
X177500000Y-123030000D01*
X178050000Y-116450000D02*
X177500000Y-117000000D01*
X178050000Y-113875000D02*
X178050000Y-116450000D01*
%TO.N,Net-(U2-VCC)*%
X159735000Y-85765000D02*
X157338600Y-88161400D01*
X162144100Y-85765000D02*
X159735000Y-85765000D01*
X157338600Y-88161400D02*
X157338600Y-94737000D01*
X163521600Y-87190000D02*
X163521600Y-87142500D01*
X163521600Y-87142500D02*
X162144100Y-85765000D01*
%TO.N,Net-(U2-GND)*%
X152225000Y-105865000D02*
X151000000Y-107090000D01*
X152225000Y-102390600D02*
X152225000Y-105865000D01*
X157338600Y-97277000D02*
X152225000Y-102390600D01*
X160981600Y-93634000D02*
X157338600Y-97277000D01*
X160981600Y-87190000D02*
X160981600Y-93634000D01*
%TO.N,Net-(U1-38_CS1_IN1)*%
X175850000Y-124350000D02*
X176280000Y-124350000D01*
%TO.N,Net-(J1-Pin_2)*%
X151160000Y-71690000D02*
X151000000Y-71530000D01*
X159981600Y-71690000D02*
X151160000Y-71690000D01*
%TO.N,Net-(U1-37_CS)*%
X168000000Y-120734000D02*
X151944000Y-120734000D01*
X151944000Y-120734000D02*
X151000000Y-119790000D01*
%TO.N,Net-(Q1-G)*%
X132500000Y-71500000D02*
X133000000Y-72000000D01*
X133000000Y-72000000D02*
X133000000Y-78930000D01*
X130500000Y-71500000D02*
X132500000Y-71500000D01*
X130061600Y-71938400D02*
X130500000Y-71500000D01*
X130061600Y-73050000D02*
X130061600Y-71938400D01*
X133000000Y-78930000D02*
X135760000Y-81690000D01*
%TO.N,Net-(D1-BK)*%
X180000000Y-127500000D02*
X180758400Y-126741600D01*
X180758400Y-112185000D02*
X179758400Y-111185000D01*
X180758400Y-126741600D02*
X180758400Y-112185000D01*
X177758400Y-111185000D02*
X176780000Y-112163400D01*
X176780000Y-112163400D02*
X176780000Y-113875000D01*
X178820000Y-127500000D02*
X180000000Y-127500000D01*
X179758400Y-111185000D02*
X177758400Y-111185000D01*
%TO.N,GND*%
X131331600Y-73050000D02*
X131331600Y-86340000D01*
%TO.N,Net-(D1-RK)*%
X178820000Y-121200000D02*
X179320000Y-120700000D01*
X179320000Y-120700000D02*
X179320000Y-113875000D01*
%TO.N,+9V*%
X177500000Y-85588400D02*
X177561600Y-85650000D01*
X177500000Y-79320000D02*
X177500000Y-85588400D01*
%TO.N,Net-(J6-Pin_2)*%
X165061600Y-71690000D02*
X177490000Y-71690000D01*
X177490000Y-71690000D02*
X177500000Y-71700000D01*
%TO.N,Net-(J1-Pin_3)*%
X135450000Y-96690000D02*
X135760000Y-96380000D01*
%TO.N,Net-(U5-IN)*%
X160061600Y-80230000D02*
X166061600Y-86230000D01*
X166061600Y-86230000D02*
X166061600Y-87190000D01*
%TO.N,Net-(U1-37_CS)*%
X168000000Y-120734000D02*
X169514000Y-120734000D01*
X168000000Y-120734000D02*
X168500000Y-120734000D01*
X169514000Y-120734000D02*
X176280000Y-127500000D01*
%TD*%
M02*
