M48
; DRILL file {KiCad 8.0.2} date 2024-06-20T15:08:58+0100
; FORMAT={-:-/ absolute / inch / decimal}
; #@! TF.CreationDate,2024-06-20T15:08:58+01:00
; #@! TF.GenerationSoftware,Kicad,Pcbnew,8.0.2
; #@! TF.FileFunction,Plated,1,2,PTH
FMAT,2
INCH
; #@! TA.AperFunction,Plated,PTH,ComponentDrill
T1C0.0276
; #@! TA.AperFunction,Plated,PTH,ComponentDrill
T2C0.0295
; #@! TA.AperFunction,Plated,PTH,ComponentDrill
T3C0.0300
; #@! TA.AperFunction,Plated,PTH,ComponentDrill
T4C0.0315
; #@! TA.AperFunction,Plated,PTH,ComponentDrill
T5C0.0354
; #@! TA.AperFunction,Plated,PTH,ComponentDrill
T6C0.0394
; #@! TA.AperFunction,Plated,PTH,ComponentDrill
T7C0.0433
; #@! TA.AperFunction,Plated,PTH,ComponentDrill
T8C0.0472
%
G90
G05
T1
X6.3016Y-3.0587
X6.3016Y-3.1587
X6.9402Y-4.7717
X6.9402Y-4.8957
X6.9402Y-5.0197
X7.0402Y-4.7717
X7.0402Y-4.8957
X7.0402Y-5.0197
T2
X5.0705Y-2.876
X5.1205Y-2.876
X5.1705Y-2.876
X6.7504Y-2.6772
X6.8004Y-2.6772
X6.8504Y-2.6772
T3
X6.1841Y-4.4066
X6.1841Y-4.5066
X6.1841Y-4.6066
X6.1841Y-4.7066
X6.1841Y-4.8066
X6.1841Y-4.9066
X6.1841Y-5.0066
X6.1841Y-5.1066
X6.1944Y-3.7298
X6.1944Y-3.8298
X6.1944Y-3.9298
X6.1944Y-4.0298
X6.1944Y-4.1298
T4
X5.5949Y-2.8449
X5.6914Y-3.3268
X5.6914Y-3.4055
X5.6949Y-2.8449
X5.7701Y-3.3268
X5.7701Y-3.4055
X5.8489Y-3.3268
X5.8489Y-3.4055
X6.9882Y-2.8228
X6.9882Y-3.1228
T5
X6.9098Y-4.4833
X6.9598Y-4.4833
X7.0098Y-4.4833
X7.0598Y-4.4833
T6
X4.9067Y-5.0197
X4.9606Y-4.426
X4.9606Y-4.526
X4.9606Y-4.626
X4.9631Y-3.503
X4.9631Y-3.603
X4.9631Y-3.703
X4.9631Y-3.936
X4.9631Y-4.036
X4.9631Y-4.136
X5.1035Y-5.0197
X6.3945Y-2.4606
X6.4945Y-2.4606
X6.5945Y-2.4606
T7
X5.3449Y-2.8161
X5.3449Y-2.9161
X5.3449Y-3.0161
X5.3449Y-3.1161
X5.3449Y-3.2161
X5.3449Y-3.3161
X5.3449Y-3.4161
X5.3449Y-3.5161
X5.3449Y-3.6161
X5.3449Y-3.7161
X5.3449Y-3.8161
X5.3449Y-3.9161
X5.3449Y-4.0161
X5.3449Y-4.1161
X5.3449Y-4.2161
X5.3449Y-4.3161
X5.3449Y-4.4161
X5.3449Y-4.5161
X5.3449Y-4.6161
X5.3449Y-4.7161
X5.3449Y-4.8161
X5.3449Y-4.9161
X5.3449Y-5.0161
X5.3449Y-5.1161
X5.4449Y-4.6161
X5.465Y-3.0641
X5.465Y-3.1641
X5.465Y-3.2641
X5.465Y-3.3641
X5.465Y-3.4641
X5.5449Y-4.6161
X5.6449Y-4.6161
X5.7449Y-4.6161
X5.8449Y-2.9161
X5.8449Y-4.6161
X5.9449Y-2.8161
X5.9449Y-2.9161
X5.9449Y-3.0161
X5.9449Y-3.1161
X5.9449Y-3.2161
X5.9449Y-3.3161
X5.9449Y-3.4161
X5.9449Y-3.5161
X5.9449Y-3.6161
X5.9449Y-3.7161
X5.9449Y-3.8161
X5.9449Y-3.9161
X5.9449Y-4.0161
X5.9449Y-4.1161
X5.9449Y-4.2161
X5.9449Y-4.3161
X5.9449Y-4.4161
X5.9449Y-4.5161
X5.9449Y-4.6161
X5.9449Y-4.7161
X5.9449Y-4.8161
X5.9449Y-4.9161
X5.9449Y-5.0161
X5.9449Y-5.1161
X6.2985Y-2.8224
X6.3379Y-3.4327
X6.3985Y-2.8224
X6.4379Y-3.4327
X6.4985Y-2.8224
X6.5379Y-3.4327
T8
X4.9803Y-3.1299
X4.9803Y-3.2299
X6.0614Y-2.5
X6.1614Y-2.5
X6.9906Y-3.372
X6.9906Y-3.472
M30
