%TF.GenerationSoftware,KiCad,Pcbnew,8.0.2*%
%TF.CreationDate,2024-06-20T15:08:29+01:00*%
%TF.ProjectId,dadaelus v0.3,64616461-656c-4757-9320-76302e332e6b,rev?*%
%TF.SameCoordinates,Original*%
%TF.FileFunction,Soldermask,Top*%
%TF.FilePolarity,Negative*%
%FSLAX46Y46*%
G04 Gerber Fmt 4.6, Leading zero omitted, Abs format (unit mm)*
G04 Created by KiCad (PCBNEW 8.0.2) date 2024-06-20 15:08:29*
%MOMM*%
%LPD*%
G01*
G04 APERTURE LIST*
%ADD10R,1.050000X1.500000*%
%ADD11O,1.050000X1.500000*%
%ADD12C,2.000000*%
%ADD13R,2.000000X2.000000*%
%ADD14R,1.700000X1.700000*%
%ADD15O,1.700000X1.700000*%
%ADD16R,1.905000X2.000000*%
%ADD17O,1.905000X2.000000*%
%ADD18R,1.600000X1.600000*%
%ADD19O,1.600000X1.600000*%
%ADD20C,1.400000*%
%ADD21O,1.400000X1.400000*%
%ADD22C,2.100000*%
%ADD23R,1.070000X1.800000*%
%ADD24O,1.070000X1.800000*%
%ADD25C,1.600000*%
%ADD26R,1.300000X1.300000*%
%ADD27C,1.300000*%
%ADD28C,1.524000*%
G04 APERTURE END LIST*
D10*
%TO.C,Q2*%
X171460000Y-68000000D03*
D11*
X172730000Y-68000000D03*
X174000000Y-68000000D03*
%TD*%
D12*
%TO.C,J7*%
X156500000Y-63500000D03*
D13*
X153960000Y-63500000D03*
%TD*%
%TO.C,J6*%
X126500000Y-82040000D03*
D12*
X126500000Y-79500000D03*
%TD*%
D14*
%TO.C,J5*%
X167500000Y-62500000D03*
D15*
X164960000Y-62500000D03*
X162420000Y-62500000D03*
%TD*%
D14*
%TO.C,J4*%
X126000000Y-112420000D03*
D15*
X126000000Y-114960000D03*
X126000000Y-117500000D03*
%TD*%
D16*
%TO.C,U5*%
X160981600Y-87190000D03*
D17*
X163521600Y-87190000D03*
X166061600Y-87190000D03*
%TD*%
D14*
%TO.C,J1*%
X126061600Y-88975000D03*
D15*
X126061600Y-91515000D03*
X126061600Y-94055000D03*
%TD*%
D18*
%TO.C,SW1*%
X177500000Y-71700000D03*
D19*
X177500000Y-79320000D03*
%TD*%
D20*
%TO.C,R3*%
X176280000Y-124350000D03*
D21*
X178820000Y-124350000D03*
%TD*%
D16*
%TO.C,U4*%
X165061600Y-71690000D03*
D17*
X162521600Y-71690000D03*
X159981600Y-71690000D03*
%TD*%
D13*
%TO.C,J3*%
X177561600Y-85650000D03*
D12*
X177561600Y-88190000D03*
%TD*%
D14*
%TO.C,J2*%
X126061600Y-99975000D03*
D15*
X126061600Y-102515000D03*
X126061600Y-105055000D03*
%TD*%
D22*
%TO.C,REF\u002A\u002A*%
X123000000Y-137000000D03*
%TD*%
D23*
%TO.C,D1*%
X175510000Y-113875000D03*
D24*
X176780000Y-113875000D03*
X178050000Y-113875000D03*
X179320000Y-113875000D03*
%TD*%
D18*
%TO.C,U1*%
X135760000Y-71530000D03*
D25*
X135760000Y-74070000D03*
X135760000Y-76610000D03*
X135760000Y-79150000D03*
X135760000Y-81690000D03*
X135760000Y-84230000D03*
X135760000Y-86770000D03*
X135760000Y-89310000D03*
X135760000Y-91850000D03*
X135760000Y-94390000D03*
X135760000Y-96930000D03*
X135760000Y-99470000D03*
X135760000Y-102010000D03*
X135760000Y-104550000D03*
X135760000Y-107090000D03*
X135760000Y-109630000D03*
X135760000Y-112170000D03*
X135760000Y-114710000D03*
X135760000Y-117250000D03*
X135760000Y-119790000D03*
X135760000Y-122330000D03*
X135760000Y-124870000D03*
X135760000Y-127410000D03*
X135760000Y-129950000D03*
X151000000Y-129950000D03*
X151000000Y-127410000D03*
X151000000Y-124870000D03*
X151000000Y-122330000D03*
X151000000Y-119790000D03*
X151000000Y-117250000D03*
X151000000Y-114710000D03*
X151000000Y-112170000D03*
X151000000Y-109630000D03*
X151000000Y-107090000D03*
X151000000Y-104550000D03*
X151000000Y-102010000D03*
X151000000Y-99470000D03*
X151000000Y-96930000D03*
X151000000Y-94390000D03*
X151000000Y-91850000D03*
X151000000Y-89310000D03*
X151000000Y-86770000D03*
X151000000Y-84230000D03*
X151000000Y-81690000D03*
X151000000Y-79150000D03*
X151000000Y-76610000D03*
X151000000Y-74070000D03*
X151000000Y-71530000D03*
X148460000Y-74070000D03*
X138300000Y-117250000D03*
X140840000Y-117250000D03*
X143380000Y-117250000D03*
X145920000Y-117250000D03*
X148460000Y-117250000D03*
D18*
X138810800Y-77829200D03*
D25*
X138810800Y-80369200D03*
X138810800Y-82909200D03*
X138810800Y-85449200D03*
X138810800Y-87989200D03*
D26*
X148561600Y-84500000D03*
D27*
X146561600Y-84500000D03*
X144561600Y-84500000D03*
X144561600Y-86500000D03*
X146561600Y-86500000D03*
X148561600Y-86500000D03*
X144650000Y-72260000D03*
X142110000Y-72260000D03*
%TD*%
D22*
%TO.C,REF\u002A\u002A*%
X180000000Y-62000000D03*
%TD*%
D20*
%TO.C,R1*%
X160061600Y-77690000D03*
D21*
X160061600Y-80230000D03*
%TD*%
D22*
%TO.C,REF\u002A\u002A*%
X180000000Y-137000000D03*
%TD*%
D28*
%TO.C,U2*%
X157338600Y-94737000D03*
X157338600Y-97277000D03*
X157338600Y-99817000D03*
X157338600Y-102357000D03*
X157338600Y-104897000D03*
%TD*%
D10*
%TO.C,Q1*%
X128791600Y-73050000D03*
D11*
X130061600Y-73050000D03*
X131331600Y-73050000D03*
%TD*%
D22*
%TO.C,REF\u002A\u002A*%
X123000000Y-62000000D03*
%TD*%
D20*
%TO.C,R4*%
X176280000Y-127500000D03*
D21*
X178820000Y-127500000D03*
%TD*%
D28*
%TO.C,U3*%
X157076600Y-111927000D03*
X157076600Y-114467000D03*
X157076600Y-117007000D03*
X157076600Y-119547000D03*
X157076600Y-122087000D03*
X157076600Y-124627000D03*
X157076600Y-127167000D03*
X157076600Y-129707000D03*
%TD*%
D20*
%TO.C,R2*%
X176280000Y-121200000D03*
D21*
X178820000Y-121200000D03*
%TD*%
D13*
%TO.C,BZ1*%
X124629216Y-127500000D03*
D12*
X129629216Y-127500000D03*
%TD*%
M02*
